<?xml version="1.0" encoding="UTF-8"?>
<svg id="Layer_1" xmlns="http://www.w3.org/2000/svg" version="1.1" viewBox="0 0 422.9 198">
  <!-- Generator: Adobe Illustrator 30.3.0, SVG Export Plug-In . SVG Version: 2.1.3 Build 182)  -->
  <defs>
    <style>
      .st0 {
        fill: #3e7fbb;
      }

      .st1 {
        fill: #1f3e77;
      }
    </style>
  </defs>
  <path class="st1" d="M19.5,120c-1.8-1.5-4.6-2.3-8.4-2.3-1.7,0-3.4.2-5,.6-1.3.3-2.4.9-3.5,1.7-.9.7-1.5,1.5-2,2.5C.2,123.5,0,124.6,0,125.6v1.6h5.6c0-1.2.4-2.3,1.2-3.3.8-.9,2.2-1.3,4.4-1.3.9,0,1.8,0,2.7.4.6.2,1.2.5,1.7,1,.4.4.7.8.9,1.3.2.4.2.9.3,1.3v1.3c0,.5,0,.9-.3,1.4-.2.4-.4.7-.7,1.1-.2.3-.5.5-.8.7l-.7.4c-.2,0-.6.2-1.3.5-.7.3-1.5.6-2.5.9l-2.9,1c-1,.4-1.9.7-2.7.9-1.5.5-2.8,1.5-3.6,2.9-.9,1.4-1.3,2.9-1.3,4.5v3.1c0,.9.2,1.8.4,2.6.3,1,.9,1.9,1.7,2.6,1,.9,2.1,1.6,3.4,2,3.7,1.1,7.5,1.1,11.2,0,1.3-.4,2.4-1.1,3.4-2,.8-.7,1.3-1.6,1.7-2.6.3-.8.4-1.7.4-2.6v-19.5c0-1.1-.2-2.2-.7-3.2-.5-1-1.1-1.8-2-2.5M16.7,143.2c0,1.4-.3,2.6-1.2,3.7-.8.9-2.3,1.3-4.4,1.3s-3.6-.4-4.4-1.2c-.9-1.1-1.3-2.3-1.2-3.7,0-.7.1-1.4.5-2.1.3-.5.6-1,1.1-1.3.5-.4,1-.7,1.5-.9.7-.3,1.4-.5,2.2-.8.8-.3,1.4-.5,2.1-.8.8-.3,1.5-.5,2.1-.8.3-.1.7-.3,1-.5.4-.2.6-.6.7-1v8.1Z"/>
  <rect class="st1" x="30.3" y="104.9" width="5.5" height="47.7"/>
  <path class="st1" d="M53.3,117.7c-2.1,0-4.2.2-6.1,1-1.3.5-2.4,1.3-3.3,2.3-.7.8-1.2,1.6-1.4,2.7-.1.7-.2,1.4-.3,2.1v26.8h5.6v-25.7c0-.4,0-.9.2-1.3.1-.5.4-.9.8-1.3.5-.5,1-.8,1.7-1.1.9-.3,1.9-.5,2.8-.5h2.5l1.2-4.8c-.6,0-1.1-.1-1.7,0h-1.9"/>
  <path class="st1" d="M80.5,120c-1.8-1.5-4.6-2.3-8.4-2.3-1.7,0-3.4.2-5,.6-1.3.3-2.4.9-3.5,1.7-.9.7-1.5,1.5-2,2.5-.4,1-.6,2-.6,3.1v1.6h5.6c0-1.2.4-2.3,1.2-3.3.8-.9,2.2-1.3,4.4-1.3.9,0,1.8,0,2.7.4.6.2,1.2.5,1.7,1,.4.4.7.8.9,1.3.2.4.3.9.3,1.3v1.3c0,.5,0,.9-.3,1.4-.2.4-.4.7-.7,1.1-.2.3-.5.5-.8.7l-.7.4c-.2,0-.6.2-1.3.5s-1.5.6-2.5.9l-2.9,1c-1,.4-1.9.7-2.7.9-1.5.5-2.7,1.5-3.6,2.9-.9,1.4-1.3,2.9-1.3,4.5v3.1c0,.9.2,1.8.4,2.6.3,1,.9,1.9,1.7,2.6,1,.9,2.1,1.6,3.4,2,3.7,1.1,7.5,1.1,11.2,0,1.3-.4,2.4-1.1,3.4-2,.8-.7,1.3-1.6,1.7-2.6.3-.8.4-1.7.4-2.6v-19.5c0-1.1-.2-2.2-.7-3.2-.5-1-1.1-1.8-2-2.5M77.6,143.2c0,1.4-.3,2.6-1.2,3.7-.8.9-2.3,1.3-4.4,1.3s-3.6-.4-4.4-1.2c-.9-1.1-1.3-2.3-1.2-3.7,0-.7.1-1.4.5-2.1.3-.5.6-1,1.1-1.3.5-.4,1-.7,1.5-.9.7-.3,1.4-.5,2.2-.8.8-.3,1.4-.5,2.1-.8.8-.3,1.5-.5,2.1-.8.3-.1.7-.3,1-.5.4-.2.6-.6.6-1v8.1Z"/>
  <path class="st1" d="M110.2,120.9c-.9-1-2-1.8-3.3-2.3-4.1-1.3-8.2-1.3-12.3,0-1.3.5-2.4,1.3-3.3,2.3-.7.8-1.1,1.6-1.4,2.6-.2.7-.2,1.4-.3,2.1v19.5c0,1.4.3,2.8,1.2,3.9.4.5.8,1,1.3,1.4.6.5,1.3,1,2,1.3.9.4,1.9.7,2.8.9,1.3.3,2.6.4,3.8.4,1.7,0,3.3-.2,5-.6,1.1-.3,2.1-.8,3.1-1.4,1-.7,1.8-1.6,2.3-2.6.5-1,.8-2.1.8-3.3v-1.6h-5.6c0,.7-.1,1.3-.3,2-.2.6-.6,1.2-1.2,1.6-.4.3-.9.5-1.4.6-.9.3-1.8.4-2.7.4-.7,0-1.4,0-2.1-.2-.5,0-.9-.3-1.3-.5-.4-.1-.7-.3-1-.6-.2-.2-.4-.5-.6-.8-.4-.8-.6-1.6-.6-2.5v-3c0-1.2.4-2.3,1.3-3.1.8-.8,1.8-1.2,3-1.2h5c.6,0,1.2,0,1.8-.3.6-.2,1.1-.4,1.6-.6.6-.3,1.2-.7,1.6-1.2.9-.8,1.6-1.8,2-3,.3-.8.4-1.6.4-2.5v-3.2c0-.7-.1-1.4-.3-2.1-.2-1-.7-1.9-1.4-2.7M106.3,127.3v.6c0,1-.4,1.9-1.2,2.6-.7.7-1.6,1.1-2.6,1.1h-3.7c-.2,0-.5,0-.9,0-.4,0-.8.1-1.2.3-.4.1-.7.3-1,.6-.3.2-.5.6-.6,1v-6.8c0-.4,0-.8.2-1.2.2-.5.4-.9.8-1.3.5-.5,1.1-.8,1.8-1,1-.3,2-.5,3-.4,1,0,1.9.1,2.8.4.6.2,1.2.6,1.7,1,.4.4.6.8.8,1.3.1.4.2.8.2,1.3v.5Z"/>
  <path class="st1" d="M133.7,113.3v1.2c0,.5,0,.9-.3,1.4-.2.4-.4.7-.7,1-.2.3-.5.5-.8.7l-.7.4c-.2,0-.6.2-1.3.5l-2.4.9-2.9,1-2.7.9c-1.6.5-2.8,1.5-3.7,2.9-.9,1.4-1.3,2.9-1.3,4.5v1.5h0v13.3h0v1.6c0,1.1.2,2.1.6,3.1.4,1,1.1,1.9,2,2.5,1.1.8,2.2,1.4,3.5,1.7,1.7.4,3.3.7,5.1.6,3.8,0,6.6-.8,8.4-2.3,1.8-1.5,2.7-3.3,2.8-5.7v-40.3h-5.6v8.4ZM133.7,129.9v14.3c0,.5,0,.9-.3,1.4-.2.5-.5,1-.9,1.3-.5.4-1.1.8-1.7.9-.9.3-1.8.4-2.7.4-.9,0-1.8-.1-2.6-.4-.6-.2-1.2-.5-1.7-.9-.4-.4-.7-.8-.9-1.4-.2-.5-.3-1.1-.4-1.7v-14c0-.7.1-1.4.5-2.1.3-.5.7-.9,1.1-1.3.4-.4.9-.7,1.5-1,.7-.3,1.4-.5,2.2-.8l2.1-.7c.8-.3,1.5-.5,2.1-.7.4,0,.7-.3,1-.5.4-.3.6-.6.6-1v8.2Z"/>
  <path class="st1" d="M165.2,120c-1.8-1.5-4.6-2.3-8.4-2.3-1.7,0-3.4.2-5,.6-1.3.3-2.4.9-3.5,1.7-.9.7-1.5,1.5-2,2.5-.4,1-.6,2-.6,3.1v1.6h5.5c0-1.2.4-2.3,1.2-3.3.8-.9,2.2-1.3,4.4-1.3.9,0,1.8,0,2.7.4.6.2,1.2.5,1.7,1,.4.4.7.8.9,1.3.2.4.2.9.3,1.3v1.3c0,.5,0,.9-.3,1.4-.2.4-.4.7-.7,1.1-.2.3-.5.5-.8.7l-.7.4c-.2,0-.6.2-1.3.5l-2.5.9-2.9,1c-1,.4-1.9.7-2.7.9-1.5.5-2.7,1.5-3.6,2.9-.9,1.4-1.3,2.9-1.3,4.5v3.1c0,.9.2,1.8.4,2.6.3,1,.9,1.9,1.7,2.6,1,.9,2.1,1.6,3.4,2,3.7,1.1,7.5,1.1,11.2,0,1.3-.4,2.4-1.1,3.4-2,.8-.7,1.3-1.6,1.7-2.6.3-.8.4-1.7.4-2.6v-19.5c0-1.1-.2-2.2-.7-3.2-.5-1-1.1-1.8-2-2.5M162.4,143.2c0,1.4-.3,2.6-1.2,3.7-.8.9-2.3,1.3-4.5,1.3s-3.6-.4-4.4-1.2c-.9-1.1-1.3-2.3-1.2-3.7,0-.7.1-1.4.5-2.1.3-.5.7-1,1.1-1.3.5-.4.9-.7,1.5-.9.7-.3,1.4-.5,2.2-.8.8-.3,1.4-.5,2.1-.8l2.1-.8c.3-.1.7-.3,1-.5.4-.2.6-.6.6-1v8.1Z"/>
  <path class="st1" d="M195.3,124.1c-.9-1.4-2.1-2.4-3.6-2.9l-2.7-.9-2.9-1-2.4-.9c-.7-.3-1.2-.4-1.3-.5l-.7-.4c-.3-.2-.6-.4-.8-.7-.3-.3-.5-.7-.7-1-.2-.4-.3-.9-.3-1.4v-9.6h-5.5v47.7h5.5v-30.8c0,.5.3.8.6,1,.3.2.6.4,1,.5.7.2,1.4.5,2.2.7.7.3,1.4.5,2.1.7.6.2,1.5.5,2.2.8.6.2,1.1.6,1.6,1,.4.4.8.8,1,1.3.3.7.5,1.3.5,2.1v22.7h5.5v-23.9c0-1.6-.4-3.2-1.3-4.5"/>
  <rect class="st1" x="191" y="44.9" width="5.5" height="47.7"/>
  <rect class="st1" x="108.3" y="44.9" width="5.5" height="47.7"/>
  <path class="st1" d="M174.3,83.6c0,.4,0,.9-.2,1.3-.1.5-.4.9-.8,1.3-.5.5-1,.8-1.7,1-.9.3-1.9.5-2.8.4h-31.3c-1,0-1.9-.1-2.8-.4-.6-.2-1.2-.6-1.7-1-.4-.4-.6-.8-.8-1.3-.1-.4-.2-.8-.2-1.3v-25.8h-5.6v39.3c0,.4,0,.9-.2,1.3-.2.5-.4.9-.8,1.3-.5.5-1.1.8-1.7,1-1,.3-2,.5-3,.4v4.9c2.2,0,4.3-.2,6.3-1,1.3-.5,2.4-1.3,3.3-2.3.7-.7,1.1-1.6,1.4-2.5.1-.7.2-1.4.3-2.1v-6.3c1.7.5,3.5.8,5.3.8h31.3c2.1,0,4.2-.2,6.2-1,1.3-.5,2.4-1.3,3.3-2.3.7-.8,1.1-1.7,1.4-2.7.1-.7.2-1.4.3-2.1v-39.6h-5.6v38.6Z"/>
  <path class="st1" d="M89.4,83.6c0,.4,0,.9-.2,1.3-.1.5-.4.9-.8,1.3-.5.5-1,.8-1.7,1-.9.3-1.9.5-2.8.4h-32.5c0-.1.1-.3.2-.4.3-.8.4-1.7.4-2.6v-19.5c0-1.1-.2-2.1-.6-3.1-.4-1-1.1-1.9-2-2.5-1-.8-2.2-1.4-3.5-1.7-1.7-.5-3.3-.7-5-.6-3.9,0-6.7.7-8.5,2.3-.9.7-1.5,1.5-2,2.5-.5,1-.7,2-.7,3.1v1.6h5.5v-.7c0-.5,0-.9.3-1.3.2-.5.5-.9.9-1.3.5-.4,1.1-.8,1.7-.9.9-.3,1.8-.4,2.7-.4,2.2,0,3.7.5,4.4,1.4.8.9,1.2,2,1.2,3.3v16c.1,1.4-.3,2.6-1.2,3.7-.8.8-2.2,1.2-4.4,1.2h-12.3c0,0,0,5,0,5h55.2c2.1,0,4.2-.2,6.2-1,1.3-.5,2.4-1.3,3.3-2.3.7-.8,1.1-1.7,1.4-2.7.1-.7.2-1.4.3-2.1v-26.9h-5.6v25.9Z"/>
  <path class="st1" d="M91.9,51.9c-.1-.2-.2-.4-.2-.7v-2.3c0-.2,0-.4.2-.6,0,0,.2-.2.9-.2.2,0,.4,0,.6,0,.1,0,.2,0,.3.2,0,0,0,0,.1.1,0,0,0,.1,0,.2v.9h3.2v-1.2c0-1-.4-1.8-1.2-2.4-1-.7-2-1-3.2-.9-.6,0-1.2,0-1.8.2-.5.1-1,.4-1.4.7-.4.3-.7.7-.9,1.2-.2.4-.3.8-.3,1.3v3.4c0,0,0,.2,0,.3h-1.7v3.1h10.7v-3.2h-4.7c-.3,0-.6,0-.9-.1"/>
  <path class="st1" d="M20.6,60.6c-.9-1-2-1.8-3.3-2.3-4.1-1.3-8.2-1.3-12.3,0-1.3.5-2.4,1.3-3.3,2.3-.7.8-1.2,1.7-1.4,2.7-.1.7-.2,1.4-.3,2.1v19.5c0,.7.1,1.4.3,2.1.2,1,.7,1.9,1.4,2.7.9,1,2,1.8,3.3,2.3,4.1,1.3,8.2,1.3,12.3,0,1.3-.5,2.4-1.3,3.3-2.3.7-.8,1.1-1.6,1.4-2.6.2-.7.2-1.4.3-2.1v-19.5c0-.7-.1-1.4-.3-2.1-.2-1-.7-1.9-1.4-2.6M16.7,83.9c0,.4,0,.9-.2,1.3-.2.5-.4.9-.8,1.3-.5.5-1.1.8-1.7,1-1,.3-2,.5-3,.4-1,0-1.9-.1-2.8-.4-.6-.2-1.2-.6-1.7-1-.4-.4-.6-.8-.8-1.4,0-.4-.2-.8-.2-1.2v-17.4c0-.4,0-.8.2-1.2.1-.5.4-1,.8-1.4.5-.5,1-.8,1.7-1,.9-.3,1.9-.5,2.8-.4,1,0,2,.1,3,.4.6.2,1.2.6,1.7,1,.4.4.7.8.8,1.3.1.4.2.8.2,1.3v17.5Z"/>
  <rect class="st1" x="12.7" y="48" width="5.6" height="6.6"/>
  <rect class="st1" x="3.9" y="48" width="5.6" height="6.6"/>
  <path class="st1" d="M338.6,98.6c0,0,0,.2,0,.3h0c0,0,0-.3,0-.3ZM366.6,99v-.4.4ZM366.6,99.4v-.4.4h0ZM310.5,99c0,0,0-.1,0-.2v-.2.4ZM282.5,98.6v.4-.4ZM366.7,99.9v-2.8c.3-1.7.8-3.3,1.7-4.8.8-1.5,1.8-2.8,3.1-3.9,1.3-1.1,2.7-2,4.3-2.6,1.6-.6,3.2-.9,4.9-.9h.2c.9,0,1.8-.1,2.7-.3.9-.2,1.8-.5,2.6-.8.8-.4,1.6-.8,2.4-1.3.8-.5,1.5-1.1,2.1-1.8.6-.7,1.2-1.4,1.7-2.2.5-.8.9-1.6,1.3-2.4.3-.9.6-1.7.8-2.6.2-.9.2-1.8.2-2.7,0-.9-.1-1.8-.3-2.7-.2-.9-.5-1.8-.8-2.6-.4-.9-.8-1.7-1.3-2.4-.5-.8-1.1-1.5-1.8-2.1-.7-.6-1.4-1.2-2.1-1.7-.8-.5-1.6-.9-2.4-1.3-.9-.3-1.7-.6-2.6-.8-.9-.2-1.8-.3-2.7-.3-.9,0-1.8.1-2.7.3-.9.2-1.8.5-2.6.8-.8.4-1.7.8-2.4,1.3-.8.5-1.5,1.1-2.1,1.8-.6.7-1.2,1.4-1.7,2.1-.5.8-.9,1.6-1.3,2.4-.4.9-.6,1.7-.8,2.6-.2.9-.3,1.8-.3,2.7,0,.9-.1,1.8-.3,2.7-.2.9-.5,1.7-.8,2.6-.4.8-.8,1.6-1.3,2.4-.5.7-1.1,1.4-1.7,2.1-.6.6-1.4,1.2-2.1,1.7-.8.5-1.6.9-2.4,1.3-.8.3-1.7.6-2.6.8-.9.2-1.8.3-2.7.3s-1.8,0-2.7-.3c-.9-.2-1.8-.4-2.6-.8-.8-.3-1.6-.8-2.4-1.3-.8-.5-1.5-1.1-2.1-1.7-.7-.6-1.2-1.3-1.7-2.1-.5-.8-1-1.5-1.3-2.4-.4-.8-.6-1.7-.8-2.6-.2-.9-.3-1.8-.3-2.7,0-.9-.1-1.8-.3-2.7-.2-.9-.5-1.8-.8-2.6s-.8-1.6-1.3-2.4c-.5-.7-1.1-1.4-1.7-2.1-.6-.6-1.3-1.2-2.1-1.7-.8-.5-1.6-.9-2.4-1.3-.8-.3-1.7-.6-2.6-.8-.9-.2-1.8-.3-2.7-.3s-1.8,0-2.7.3c-.9.2-1.8.4-2.6.8-.8.3-1.6.8-2.4,1.3-.8.5-1.5,1.1-2.1,1.7-.6.6-1.2,1.3-1.7,2.1-.5.7-1,1.5-1.3,2.4-.4.8-.6,1.7-.8,2.6-.2.9-.3,1.8-.3,2.7,0,.9,0,1.8-.3,2.8-.2.9-.4,1.8-.8,2.6-.4.9-.8,1.7-1.3,2.4-.5.8-1.1,1.5-1.7,2.1-.7.7-1.4,1.2-2.1,1.8-.8.5-1.6,1-2.4,1.3-.8.4-1.7.6-2.6.8-.9.2-1.8.3-2.7.3s-1.8,0-2.7-.3c-.9-.2-1.8-.4-2.6-.8-.9-.4-1.7-.8-2.4-1.3-.8-.5-1.5-1.1-2.1-1.8-.7-.7-1.2-1.4-1.7-2.1-.5-.8-.9-1.6-1.3-2.4-.4-.9-.6-1.7-.8-2.6-.2-.9-.3-1.8-.3-2.8s0-1.8-.3-2.7c-.2-.9-.4-1.8-.8-2.6-.4-.9-.8-1.7-1.3-2.4-.5-.8-1.1-1.5-1.7-2.1-.6-.7-1.4-1.2-2.1-1.8-.8-.5-1.6-1-2.4-1.3-.8-.4-1.7-.6-2.6-.8-.9-.2-1.8-.3-2.7-.3-.9,0-1.8,0-2.7.3-.9.2-1.8.4-2.6.8-.9.4-1.7.8-2.4,1.3-.8.5-1.5,1.1-2.1,1.7-.7.6-1.2,1.4-1.8,2.1-.5.8-1,1.6-1.3,2.4s-.6,1.7-.8,2.6c-.2.9-.3,1.8-.3,2.7,0,.9,0,1.8.2,2.8.2.9.4,1.8.8,2.6.3.9.8,1.7,1.3,2.4.5.8,1.1,1.5,1.7,2.2.6.7,1.3,1.3,2.1,1.8.8.5,1.6,1,2.4,1.3.8.4,1.7.6,2.6.8.9.2,1.8.3,2.7.3h.2c1.7,0,3.3.3,4.9.9,1.6.6,3,1.5,4.3,2.6,1.3,1.1,2.3,2.4,3.1,3.9.8,1.5,1.3,3.1,1.5,4.8v1c.1,0,.1.8.1.8v.4-.4,1.9c-.3,1.7-.8,3.3-1.6,4.8-.8,1.5-1.8,2.8-3.1,3.9-1.3,1.1-2.7,2-4.3,2.6-1.6.6-3.2.9-4.9.9h-.2c-.9,0-1.8.1-2.7.3-.9.2-1.8.5-2.6.8-.8.4-1.6.8-2.4,1.3-.8.5-1.5,1.1-2.1,1.8-.6.7-1.2,1.4-1.7,2.2-.5.8-.9,1.6-1.3,2.4-.3.9-.6,1.7-.8,2.6-.2.9-.2,1.8-.2,2.7,0,.9.1,1.8.3,2.7.2.9.5,1.8.8,2.6.4.9.8,1.7,1.3,2.4.5.8,1.1,1.5,1.8,2.1.7.6,1.4,1.2,2.1,1.7.8.5,1.6.9,2.4,1.3.9.3,1.7.6,2.6.8.9.2,1.8.3,2.7.3.9,0,1.8-.1,2.7-.3.9-.2,1.8-.5,2.6-.8.8-.4,1.6-.8,2.4-1.3.8-.5,1.5-1.1,2.1-1.8.6-.7,1.2-1.4,1.7-2.1.5-.8.9-1.6,1.3-2.4.3-.9.6-1.7.8-2.6.2-.9.3-1.8.3-2.7s0-1.8.3-2.8c.2-.9.4-1.8.8-2.6.4-.9.8-1.7,1.3-2.4.5-.8,1.1-1.5,1.7-2.1.7-.7,1.4-1.2,2.1-1.8.8-.5,1.6-.9,2.4-1.3.8-.4,1.7-.6,2.6-.8.9-.2,1.8-.3,2.7-.3s1.8,0,2.7.3c.9.2,1.8.5,2.6.8.8.4,1.7.8,2.4,1.3.8.5,1.5,1.1,2.1,1.8.7.7,1.2,1.4,1.7,2.1.5.8.9,1.6,1.3,2.4.4.9.6,1.7.8,2.6.2.9.3,1.8.3,2.8,0,.9,0,1.8.3,2.7.2.9.4,1.8.8,2.6.3.9.8,1.7,1.3,2.4.5.8,1.1,1.5,1.7,2.1.6.7,1.4,1.2,2.1,1.8.8.5,1.6,1,2.4,1.3.8.4,1.7.6,2.6.8.9.2,1.8.3,2.7.3.9,0,1.8,0,2.7-.3.9-.2,1.8-.4,2.6-.8.9-.3,1.7-.8,2.4-1.3.8-.5,1.5-1.1,2.1-1.7.7-.6,1.2-1.4,1.8-2.1.5-.8,1-1.6,1.3-2.4.4-.9.6-1.7.8-2.6.2-.9.3-1.8.3-2.7,0-.9,0-1.8-.2-2.7-.2-.9-.4-1.8-.8-2.6-.3-.9-.8-1.7-1.3-2.5-.5-.8-1.1-1.5-1.7-2.2-.6-.7-1.3-1.3-2.1-1.8-.8-.5-1.6-1-2.4-1.3-.8-.4-1.7-.6-2.6-.8-.9-.2-1.8-.3-2.7-.3h-.2c-1.7,0-3.3-.3-4.9-.9-1.6-.6-3-1.5-4.3-2.6-1.3-1.1-2.3-2.4-3.1-3.9-.8-1.5-1.3-3.1-1.5-4.8v-1.1c-.1,0-.1-.9-.1-.9v.4-2.3c.3-1.7.9-3.3,1.7-4.8.8-1.5,1.8-2.8,3.1-3.9,1.3-1.1,2.7-2,4.3-2.6,1.6-.6,3.2-.9,4.9-.9s3.3.3,4.9.9c1.6.6,3,1.4,4.3,2.6,1.3,1.1,2.3,2.4,3.1,3.9.8,1.5,1.3,3.1,1.6,4.8v1c0,0,0,.8,0,.8v1.4c0,.2,0,.4.1.6,0,.2,0,.5.1.7.1.2.1.5.2.8,0,.3,0,.4.2.6,0,.2.2.6.3.8.1.3.1.3.2.5,0,.2.3.6.4.9,0,.1.1.2.2.3.2.3.4.6.5.9,0,0,0,.2.2.2.2.3.4.7.7,1h0c.3.5.6.8.8,1.1,1.3,1.3,2.8,2.3,4.5,3.1,1.7.7,3.4,1.1,5.3,1.1h.3c.9,0,1.8,0,2.7.3.9.2,1.8.4,2.6.8.9.4,1.7.8,2.4,1.3.8.5,1.5,1.1,2.1,1.8.7.7,1.2,1.4,1.7,2.1.5.8.9,1.6,1.3,2.4.4.9.6,1.7.8,2.6.2.9.3,1.8.3,2.8s0,1.8.3,2.7c.2.9.4,1.8.8,2.6.3.9.8,1.7,1.3,2.4.5.8,1.1,1.5,1.7,2.1.6.7,1.4,1.2,2.1,1.8.8.5,1.6,1,2.4,1.3.8.4,1.7.6,2.6.8.9.2,1.8.3,2.7.3.9,0,1.8,0,2.7-.3.9-.2,1.8-.4,2.6-.8.9-.3,1.7-.8,2.4-1.3.8-.5,1.5-1.1,2.1-1.7.7-.6,1.2-1.4,1.8-2.1.5-.8,1-1.6,1.3-2.4.4-.9.6-1.7.8-2.6.2-.9.3-1.8.3-2.7,0-.9,0-1.8-.2-2.7-.2-.9-.4-1.8-.8-2.7-.3-.9-.8-1.7-1.3-2.4-.5-.8-1.1-1.5-1.7-2.2-.6-.7-1.3-1.3-2.1-1.8-.8-.5-1.6-1-2.4-1.3-.8-.4-1.7-.6-2.6-.8-.9-.2-1.8-.3-2.7-.3h-.2c-1.7,0-3.3-.3-4.9-.9-1.6-.6-3-1.5-4.3-2.6-1.3-1.1-2.3-2.4-3.1-3.9-.8-1.5-1.3-3.1-1.5-4.8v-1Z"/>
  <path class="st0" d="M306.5,52.5c.7-.7,1.2-1.4,1.8-2.1.5-.8.9-1.6,1.3-2.4.4-.9.6-1.7.8-2.7.2-.9.3-1.8.3-2.8s0-1.9-.3-2.8c-.2-.9-.5-1.8-.8-2.7-.4-.9-.8-1.7-1.3-2.4-.5-.8-1.1-1.5-1.8-2.1-.7-.7-1.4-1.2-2.1-1.8-.8-.5-1.6-1-2.4-1.3-.9-.4-1.7-.6-2.6-.8-.9-.2-1.8-.3-2.7-.3s-1.8,0-2.7.3c-.9.2-1.8.5-2.6.8-.9.4-1.7.8-2.4,1.3-.8.5-1.5,1.1-2.1,1.8-.7.7-1.2,1.4-1.8,2.1-.5.8-.9,1.6-1.3,2.4-.4.9-.6,1.7-.8,2.7-.2.9-.3,1.8-.3,2.8s0,1.9.3,2.8c.2.9.4,1.8.8,2.7.4.9.8,1.7,1.3,2.4.5.8,1.1,1.5,1.7,2.1.7.7,1.4,1.2,2.1,1.8.8.5,1.6,1,2.4,1.3.9.4,1.7.6,2.6.8.9.2,1.8.3,2.7.3s1.8,0,2.7-.3c.9-.2,1.8-.5,2.6-.8.9-.4,1.7-.8,2.4-1.3.8-.5,1.5-1.1,2.1-1.8"/>
  <path class="st1" d="M334.5,24.2c.7-.7,1.2-1.4,1.8-2.1.5-.8.9-1.6,1.3-2.5.4-.9.6-1.7.8-2.7.2-.9.3-1.8.3-2.8s0-1.9-.3-2.8c-.2-.9-.4-1.8-.8-2.7-.4-.9-.8-1.7-1.3-2.5-.5-.8-1.1-1.5-1.8-2.1-.7-.7-1.4-1.2-2.1-1.8-.8-.5-1.6-1-2.4-1.3-.9-.4-1.7-.6-2.6-.8-.9-.2-1.8-.3-2.7-.3s-1.8,0-2.7.3c-.9.2-1.8.5-2.6.8-.9.4-1.7.8-2.4,1.3-.8.5-1.5,1.1-2.1,1.8-.7.7-1.2,1.4-1.8,2.1-.5.8-.9,1.6-1.3,2.5-.4.9-.6,1.7-.8,2.7-.2.9-.3,1.8-.3,2.8s0,1.9.3,2.8c.2.9.4,1.8.8,2.7.4.9.8,1.7,1.3,2.5.5.8,1.1,1.5,1.8,2.1.7.7,1.4,1.2,2.1,1.8.8.5,1.6,1,2.4,1.3.9.4,1.7.6,2.6.8.9.2,1.8.3,2.7.3s1.8,0,2.7-.3c.9-.2,1.8-.4,2.6-.8.9-.4,1.7-.8,2.4-1.3.8-.5,1.5-1.1,2.1-1.8"/>
  <path class="st0" d="M342.9,32.5c-.7.7-1.2,1.4-1.8,2.1-.5.8-.9,1.6-1.3,2.5-.4.9-.6,1.7-.8,2.7-.2.9-.3,1.8-.3,2.8s0,1.9.3,2.8c.2.9.4,1.8.8,2.7.4.9.8,1.7,1.3,2.5.5.8,1.1,1.5,1.8,2.1.7.7,1.4,1.2,2.1,1.8.8.5,1.6,1,2.4,1.3.9.4,1.7.6,2.6.8.9.2,1.8.3,2.8.3s1.8,0,2.8-.3c.9-.2,1.8-.5,2.6-.8.9-.4,1.7-.8,2.4-1.3.8-.5,1.5-1.1,2.1-1.8.7-.7,1.2-1.4,1.8-2.1.5-.8.9-1.6,1.3-2.5.4-.9.6-1.7.8-2.7.2-.9.3-1.8.3-2.8s0-1.9-.3-2.8c-.2-.9-.4-1.8-.8-2.7-.4-.9-.8-1.7-1.3-2.5s-1.1-1.5-1.8-2.1c-.7-.7-1.4-1.2-2.1-1.8-.8-.5-1.6-1-2.4-1.3-.9-.4-1.7-.6-2.6-.8-.9-.2-1.8-.3-2.7-.3s-1.8,0-2.7.3c-.9.2-1.8.4-2.6.8-.9.4-1.7.8-2.4,1.3-.8.5-1.5,1.1-2.1,1.8"/>
  <path class="st0" d="M398.8,88.7c-.7.7-1.2,1.4-1.8,2.1-.5.8-.9,1.6-1.3,2.5-.4.9-.6,1.7-.8,2.7-.2.9-.3,1.8-.3,2.8s0,1.9.3,2.8c.2.9.4,1.8.8,2.7.4.9.8,1.7,1.3,2.5.5.8,1.1,1.5,1.8,2.1.7.7,1.4,1.2,2.1,1.8.8.5,1.6,1,2.4,1.3.9.4,1.7.6,2.6.8.9.2,1.8.3,2.8.3s1.8,0,2.8-.3c.9-.2,1.8-.4,2.6-.8.9-.4,1.7-.8,2.4-1.3.8-.5,1.5-1.1,2.1-1.8.7-.7,1.2-1.4,1.8-2.1.5-.8.9-1.6,1.3-2.5.4-.9.6-1.7.8-2.7.2-.9.3-1.8.3-2.8s0-1.9-.3-2.8c-.2-.9-.4-1.8-.8-2.7-.4-.9-.8-1.7-1.3-2.5-.5-.8-1.1-1.5-1.8-2.1-.7-.7-1.4-1.2-2.1-1.8-.8-.5-1.6-1-2.4-1.3-.9-.4-1.7-.6-2.6-.8-.9-.2-1.8-.3-2.7-.3s-1.8,0-2.8.3c-.9.2-1.8.5-2.6.8-.9.4-1.7.8-2.4,1.3-.8.5-1.5,1.1-2.1,1.8"/>
  <path class="st0" d="M342.8,145.5c-.7.7-1.2,1.4-1.8,2.1-.5.8-.9,1.6-1.3,2.4-.4.9-.6,1.7-.8,2.7-.2.9-.3,1.8-.3,2.8s0,1.9.3,2.8c.2.9.4,1.8.8,2.7.4.9.8,1.7,1.3,2.5.5.8,1.1,1.5,1.8,2.1.7.7,1.4,1.2,2.1,1.8.8.5,1.6,1,2.4,1.3.9.4,1.7.6,2.6.8.9.2,1.8.3,2.7.3s1.8,0,2.7-.3c.9-.2,1.8-.4,2.6-.8.9-.4,1.7-.8,2.4-1.3.8-.5,1.5-1.1,2.1-1.8.7-.7,1.2-1.4,1.8-2.1.5-.8.9-1.6,1.3-2.5.4-.9.6-1.7.8-2.7.2-.9.3-1.8.3-2.8s0-1.9-.3-2.8c-.2-.9-.4-1.8-.8-2.7-.4-.9-.8-1.7-1.3-2.4-.5-.8-1.1-1.5-1.8-2.1-.7-.7-1.4-1.2-2.1-1.8-.8-.5-1.6-1-2.4-1.3-.9-.4-1.7-.6-2.6-.8-.9-.2-1.8-.3-2.7-.3s-1.8,0-2.7.3c-.9.2-1.8.5-2.6.8-.9.4-1.7.8-2.4,1.3-.8.5-1.5,1.1-2.1,1.8"/>
  <path class="st1" d="M314.6,173.9c-.7.7-1.2,1.4-1.8,2.1-.5.8-.9,1.6-1.3,2.5-.4.9-.6,1.7-.8,2.7-.2.9-.3,1.8-.3,2.8s0,1.9.3,2.8c.2.9.4,1.8.8,2.7.4.9.8,1.7,1.3,2.5.5.8,1.1,1.5,1.8,2.1.7.7,1.4,1.2,2.1,1.8.8.5,1.6,1,2.4,1.3.9.4,1.7.6,2.6.8.9.2,1.8.3,2.7.3s1.8,0,2.7-.3c.9-.2,1.8-.5,2.6-.8.9-.4,1.7-.8,2.4-1.3.8-.5,1.5-1.1,2.1-1.8.7-.7,1.2-1.4,1.8-2.1.5-.8.9-1.6,1.3-2.5.4-.9.6-1.7.8-2.7.2-.9.3-1.8.3-2.8s0-1.9-.3-2.8c-.2-.9-.4-1.8-.8-2.7-.4-.9-.8-1.7-1.3-2.5-.5-.8-1.1-1.5-1.8-2.1-.7-.7-1.4-1.2-2.1-1.8-.8-.5-1.6-1-2.4-1.3-.9-.4-1.7-.6-2.6-.8-.9-.2-1.8-.3-2.7-.3s-1.8,0-2.7.3c-.9.2-1.8.4-2.6.8-.9.4-1.7.8-2.4,1.3-.8.5-1.5,1.1-2.1,1.8"/>
  <path class="st0" d="M250.3,108.8c.7-.7,1.2-1.4,1.8-2.1.5-.8.9-1.6,1.3-2.5.4-.9.6-1.7.8-2.7.2-.9.3-1.8.3-2.8s0-1.9-.3-2.8c-.2-.9-.4-1.8-.8-2.7-.4-.9-.8-1.7-1.3-2.5-.5-.8-1.1-1.5-1.8-2.1-.7-.7-1.4-1.2-2.1-1.8-.8-.5-1.6-1-2.4-1.3-.9-.4-1.7-.6-2.6-.8-.9-.2-1.8-.3-2.7-.3s-1.8,0-2.7.3c-.9.2-1.8.5-2.6.8-.9.4-1.7.8-2.4,1.3-.8.5-1.5,1.1-2.1,1.8-.7.7-1.2,1.4-1.8,2.1-.5.8-.9,1.6-1.3,2.5-.4.9-.6,1.7-.8,2.7-.2.9-.3,1.8-.3,2.8s0,1.9.3,2.8c.2.9.4,1.8.8,2.7.4.9.8,1.7,1.3,2.5.5.8,1.1,1.5,1.8,2.1.7.7,1.4,1.2,2.1,1.8.8.5,1.6,1,2.4,1.3.9.4,1.7.6,2.6.8.9.2,1.8.3,2.7.3s1.8,0,2.7-.3c.9-.2,1.8-.4,2.6-.8.9-.4,1.7-.8,2.4-1.3.8-.5,1.5-1.1,2.1-1.8"/>
  <path class="st0" d="M286.5,145.5c-.7.7-1.2,1.4-1.8,2.1-.5.8-.9,1.6-1.3,2.4-.4.9-.6,1.7-.8,2.7-.2.9-.3,1.8-.3,2.8s0,1.9.3,2.8c.2.9.4,1.8.8,2.7.4.9.8,1.7,1.3,2.5.5.8,1.1,1.5,1.8,2.1.7.7,1.4,1.2,2.1,1.8.8.5,1.6,1,2.4,1.3.9.4,1.7.6,2.6.8.9.2,1.8.3,2.7.3s1.8,0,2.7-.3c.9-.2,1.8-.4,2.6-.8.9-.4,1.7-.8,2.4-1.3.8-.5,1.5-1.1,2.1-1.8.7-.7,1.2-1.4,1.8-2.1.5-.8.9-1.6,1.3-2.5.4-.9.6-1.7.8-2.7.2-.9.3-1.8.3-2.8s0-1.9-.3-2.8c-.2-.9-.4-1.8-.8-2.7-.4-.9-.8-1.7-1.3-2.4-.5-.8-1.1-1.5-1.8-2.1-.7-.7-1.4-1.2-2.1-1.8-.8-.5-1.6-1-2.4-1.3-.9-.4-1.7-.6-2.6-.8-.9-.2-1.8-.3-2.7-.3s-1.8,0-2.7.3c-.9.2-1.8.5-2.6.8-.9.4-1.7.8-2.4,1.3-.8.5-1.5,1.1-2.1,1.8"/>
</svg>